<svg xmlns="http://www.w3.org/2000/svg" viewBox="0 0 200 200">
  <circle cx="100" cy="100" r="90" fill="none" stroke="#009edb" stroke-width="6"/>
  <g fill="none" stroke="#009edb" stroke-width="3" transform="translate(100,100)">
    <path d="M0,-75 L10,-25 L0,-35 L-10,-25 Z"/>
    <path d="M0,75 L10,25 L0,35 L-10,25 Z"/>
    <path d="M-75,0 L-25,10 L-35,0 L-25,-10 Z"/>
    <path d="M75,0 L25,10 L35,0 L25,-10 Z"/>
    <path d="M-53,-53 L-18,-18 L-25,-25 L-18,-32 Z"/>
    <path d="M53,53 L18,18 L25,25 L18,32 Z"/>
    <path d="M-53,53 L-18,18 L-25,25 L-18,32 Z"/>
    <path d="M53,-53 L18,-18 L25,-25 L18,-32 Z"/>
  </g>
  <text x="100" y="165" text-anchor="middle" font-family="Arial, sans-serif" font-size="11" fill="#009edb" font-weight="bold">UNITED NATIONS</text>
</svg>
